<?xml version="1.0" encoding="utf-8"?>
<!-- Generator: Adobe Illustrator 27.3.1, SVG Export Plug-In . SVG Version: 6.00 Build 0)  -->
<svg version="1.1" id="Calque_1" xmlns="http://www.w3.org/2000/svg" xmlns:xlink="http://www.w3.org/1999/xlink" x="0px" y="0px"
	 viewBox="0 0 90 90" style="enable-background:new 0 0 90 90;" xml:space="preserve">
<style type="text/css">
	.st0{opacity:0.6;fill:#E30613;}
	.st1{fill:none;stroke:#020203;stroke-width:2;stroke-miterlimit:10;}
	.st2{fill:#020203;stroke:#020203;stroke-width:2;stroke-miterlimit:10;}
	.st3{fill:none;stroke:#020203;stroke-width:8;stroke-miterlimit:10;}
	.st4{fill:#E20E18;}
	.st5{fill:none;stroke:#EDEDED;stroke-width:6;stroke-miterlimit:10;}
	.st6{fill:#E20E18;stroke:#EDEDED;stroke-width:6;stroke-miterlimit:10;}
</style>
<ellipse class="st0" cx="46.2" cy="46.7" rx="43.6" ry="43.3"/>
<path class="st1" d="M142.6,55.6"/>
<ellipse class="st2" cx="46.2" cy="46.7" rx="39.4" ry="39.2"/>
<path class="st3" d="M81.1,8.9c-24-14.7-34.9,10.6-34.9,10.6"/>
<polygon class="st4" points="82.3,5.1 84.5,6.1 84.5,9.3 84.5,11.9 82.1,14.2 78.4,14.2 78.4,12.8 78.4,9.9 81.4,7.5 "/>
<line class="st5" x1="25.8" y1="23.9" x2="42.5" y2="36.3"/>
<line class="st5" x1="64.9" y1="24.3" x2="50.3" y2="35.8"/>
<path class="st5" d="M30.5,68.7c0,0-17.3-29.7,32.1-4.1"/>
<path class="st6" d="M57.6,40.6c2.7,0,5,0,5,0"/>
<line class="st5" x1="31.9" y1="40.6" x2="36.3" y2="40.6"/>
<polygon class="st4" points="13.5,9.6 14.7,10.1 14.7,11.7 14.7,13 13.5,14.2 11.6,14.2 11.6,13.4 11.6,12 13.1,10.8 "/>
<polygon class="st4" points="88.6,65.3 89.7,65.8 89.7,67.5 89.7,68.7 88.5,69.9 86.7,69.9 86.7,69.2 86.7,67.7 88.2,66.5 "/>
<polygon class="st4" points="3,58.2 4.2,58.7 4.2,60.4 4.2,61.7 3,62.8 1.1,62.8 1.1,62.1 1.1,60.6 2.6,59.4 "/>
<polygon class="st4" points="87,20.2 88,20.7 88,22.1 88,23.3 87,24.3 85.3,24.3 85.3,23.7 85.3,22.4 86.7,21.3 "/>
</svg>
