<?xml version="1.0" encoding="utf-8"?>
<!-- Generator: Adobe Illustrator 27.3.1, SVG Export Plug-In . SVG Version: 6.00 Build 0)  -->
<svg version="1.1" id="Calque_1" xmlns="http://www.w3.org/2000/svg" xmlns:xlink="http://www.w3.org/1999/xlink" x="0px" y="0px"
	 viewBox="0 0 70 70" style="enable-background:new 0 0 70 70;" xml:space="preserve">
<style type="text/css">
	.st0{fill:url(#SVGID_1_);stroke:#020203;stroke-width:3;stroke-miterlimit:10;}
	.st1{fill:none;stroke:#020203;stroke-width:3;stroke-miterlimit:10;}
</style>
<radialGradient id="SVGID_1_" cx="35" cy="34.9946" r="32.3905" gradientUnits="userSpaceOnUse">
	<stop  offset="0" style="stop-color:#FEF5AE"/>
	<stop  offset="0.5" style="stop-color:#FEEB1A"/>
	<stop  offset="1" style="stop-color:#FFD802"/>
</radialGradient>
<path class="st0" d="M66.3,35.3c0,14.7-10.9,26.4-26,28.5c-1.5,0.2-3.5,4.7-5.1,4.7c-1.8,0-4.7-4.9-6.5-5.2c-14.8-2.4-25-13.5-25-28
	c0-15.1,11-27.6,26.7-29.3c1.1-0.1,3.6-4.4,4.8-4.4c1.4,0,3.6,4.7,4.9,4.8C55.4,8.3,66.3,20.4,66.3,35.3z"/>
<path class="st1" d="M19,28.1c0,0,9.4-4.8,12.3,0"/>
<path class="st1" d="M42.3,28.1c0,0,8.5-6.6,12.5,0"/>
<path class="st1" d="M30.1,47.3c0,0,4.6-15,12.1-5.3s-2.1,13.2-7.9,9.4C28.7,47.7,30.1,47.3,30.1,47.3z"/>
</svg>
