<?xml version="1.0" encoding="utf-8"?>
<!-- Generator: Adobe Illustrator 27.3.1, SVG Export Plug-In . SVG Version: 6.00 Build 0)  -->
<svg version="1.1" id="Calque_1" xmlns="http://www.w3.org/2000/svg" xmlns:xlink="http://www.w3.org/1999/xlink" x="0px" y="0px"
	 viewBox="0 0 150 150" style="enable-background:new 0 0 150 150;" xml:space="preserve">
<style type="text/css">
	.st0{fill:#C7211C;}
	.st1{fill:url(#SVGID_1_);stroke:#030304;stroke-width:9;stroke-miterlimit:10;}
	.st2{fill:none;stroke:#030304;stroke-width:9;stroke-miterlimit:10;}
</style>
<polyline class="st0" points="12.3,131.7 21.1,144.9 32.5,135.8 44.3,143.6 58.1,138.3 66.5,145.1 85.6,138.3 93.6,148.2 109.9,140 
	117.4,144.9 129,131.7 135,140 141.3,131.7 "/>
<radialGradient id="SVGID_1_" cx="75.6287" cy="73.7451" r="66.9168" gradientUnits="userSpaceOnUse">
	<stop  offset="0" style="stop-color:#FDF5AF"/>
	<stop  offset="0.5" style="stop-color:#FEEB27"/>
	<stop  offset="1" style="stop-color:#FFD802"/>
</radialGradient>
<path class="st1" d="M141.3,128l-12.7-20.3c6.8-9.4,10.7-20.8,10.7-33.4c0-30.3-22.2-55-53.3-58.8c-2.6-0.2-7.1-9.8-10-9.8
	c-2.4,0-7.5,8.8-9.8,9c-32,3.5-54.4,28.9-54.4,59.6c0,13.1,4.1,24.9,11.3,34.3L9.9,128h40.2c4,1.5,8.3,2.6,12.7,3.3
	c3.7,0.6,9.6,10.6,13.2,10.6c3.3,0,7.3-9.2,10.4-9.6c5.7-0.8,11.1-2.3,16.2-4.3H141.3z"/>
<path class="st2" d="M43.1,59.6c0,0,19.1-9.8,25,0"/>
<path class="st2" d="M90.5,59.6c0,0,17.3-13.4,25.4,0"/>
<path class="st2" d="M65.7,98.7c0,0,9.4-30.5,24.6-10.8S86,114.8,74.2,107C62.8,99.5,65.7,98.7,65.7,98.7z"/>
</svg>
