<?xml version="1.0" encoding="utf-8"?>
<!-- Generator: Adobe Illustrator 27.3.1, SVG Export Plug-In . SVG Version: 6.00 Build 0)  -->
<svg version="1.1" id="Calque_1" xmlns="http://www.w3.org/2000/svg" xmlns:xlink="http://www.w3.org/1999/xlink" x="0px" y="0px"
	 viewBox="0 0 90 90" style="enable-background:new 0 0 90 90;" xml:space="preserve">
<style type="text/css">
	.st0{fill:url(#SVGID_1_);stroke:#020203;stroke-width:4;stroke-miterlimit:10;}
	.st1{fill:none;stroke:#020203;stroke-width:4;stroke-miterlimit:10;}
	.st2{fill:url(#SVGID_00000109720037968812102850000012606542170061644427_);stroke:#020203;stroke-width:4;stroke-miterlimit:10;}
</style>
<radialGradient id="SVGID_1_" cx="44.8856" cy="49.884" r="40.3725" gradientTransform="matrix(1 0 0 1.1172 0 -10.3042)" gradientUnits="userSpaceOnUse">
	<stop  offset="0" style="stop-color:#FFEBA9"/>
	<stop  offset="0.5" style="stop-color:#FECC00"/>
	<stop  offset="1" style="stop-color:#F8AE00"/>
</radialGradient>
<ellipse class="st0" cx="44.9" cy="45.4" rx="42.6" ry="42.5"/>
<path class="st1" d="M18.6,41.6c0,0,11.3-19.7,18.1-1.3"/>
<path class="st1" d="M50.9,41.6c0,0,9.3-18.2,21-0.8"/>
<path class="st1" d="M30.2,56.1c0,0-13.9,9.6,2,13.5c8.1,2.1,10.9-8.2,10.9-8.2s9.4,17.7,17,6.5s0-11.8,0-11.8"/>
<radialGradient id="SVGID_00000134963801394401212740000013192580448156442292_" cx="45.643" cy="14.5938" r="22.9416" gradientUnits="userSpaceOnUse">
	<stop  offset="0" style="stop-color:#56A964"/>
	<stop  offset="0.4888" style="stop-color:#009C3D"/>
	<stop  offset="1" style="stop-color:#00712C"/>
</radialGradient>
<path style="fill:url(#SVGID_00000134963801394401212740000013192580448156442292_);stroke:#020203;stroke-width:4;stroke-miterlimit:10;" d="
	M15.8,14.4c0,0-3.2,11.7,9.1,9.8s14.3-5,14.3-5s2.1,6,10.4,4.5S59.8,20,59.8,20s7.8,9.8,11.7,5s4.4-8.7,4.4-8.7S50.4-12.6,15.8,14.4
	z"/>
</svg>
