<?xml version="1.0" encoding="utf-8"?>
<!-- Generator: Adobe Illustrator 27.3.1, SVG Export Plug-In . SVG Version: 6.00 Build 0)  -->
<svg version="1.1" id="Calque_1" xmlns="http://www.w3.org/2000/svg" xmlns:xlink="http://www.w3.org/1999/xlink" x="0px" y="0px"
	 viewBox="0 0 150 150" style="enable-background:new 0 0 150 150;" xml:space="preserve">
<style type="text/css">
	.st0{fill:url(#SVGID_1_);stroke:#000000;stroke-width:4;stroke-miterlimit:10;}
	
		.st1{fill:url(#SVGID_00000131326567182150592190000011470073558169361829_);stroke:#000000;stroke-width:0.75;stroke-miterlimit:10;}
	
		.st2{fill:url(#SVGID_00000037689633324234283960000009859534876333972670_);stroke:#000000;stroke-width:0.75;stroke-miterlimit:10;}
	
		.st3{fill:url(#SVGID_00000079451139864414355540000008560501536182341820_);stroke:#000000;stroke-width:0.75;stroke-miterlimit:10;}
</style>
<radialGradient id="SVGID_1_" cx="76.9028" cy="80.3926" r="64.2352" gradientUnits="userSpaceOnUse">
	<stop  offset="0" style="stop-color:#FFF6E3"/>
	<stop  offset="0" style="stop-color:#DCBA93"/>
	<stop  offset="0.3778" style="stop-color:#AD7341"/>
	<stop  offset="0.5934" style="stop-color:#934E1F"/>
	<stop  offset="0.9146" style="stop-color:#5B1D14"/>
</radialGradient>
<path class="st0" d="M35.9,126.2l8.4,11.6c0,0,10.6-5.4,11.4-5.1s12.4,12.6,12.4,12.6l23-6l20.2-3.1l9.6-11.4l12-11.4l-4.6-13.6
	l12.4-20.2l-7.8-13.9l1.7-15.9c0,0-6.8-9.7-8.2-10.3s-7.3-3.7-8.9-4c-1.6-0.3-5.2-14.2-5.2-14.2l-12-3.2c0,0-14.3,6.4-15.4,6.4
	s-17.3-8.7-20.2-8.9s-20.3,4.1-20.3,4.1s-9.6,1.9-10.1,2.1s-1.9,8.5-1.9,8.5s2.7,12,1.3,14.6S19.5,49.1,21,55.2s-2.8,7-2.7,7.8
	c0.2,0.8-5,9.9-5,12c0,2.1,0.9,13.4,1.3,14.9s1.5,8.3,12,11.6c0.5,0.1-3,9.1,0.8,11.8c1,0.7-1.2,7.4-1.2,8
	C26.2,121.9,35.9,126.2,35.9,126.2z"/>
<radialGradient id="SVGID_00000032649713316084817870000014704827815565139114_" cx="138.713" cy="122.0708" r="4.234" gradientUnits="userSpaceOnUse">
	<stop  offset="0" style="stop-color:#FFF6E3"/>
	<stop  offset="0" style="stop-color:#DCBA93"/>
	<stop  offset="0.3778" style="stop-color:#AD7341"/>
	<stop  offset="0.5934" style="stop-color:#934E1F"/>
	<stop  offset="0.9146" style="stop-color:#5B1D14"/>
</radialGradient>
<path style="fill:url(#SVGID_00000032649713316084817870000014704827815565139114_);stroke:#000000;stroke-width:0.75;stroke-miterlimit:10;" d="
	M136,125.1l0.6,0.8c0,0,0.7-0.4,0.7-0.3c0.1,0,0.8,0.8,0.8,0.8l1.5-0.4l1.3-0.2l0.6-0.7l0.8-0.7l-0.3-0.9l0.8-1.3l-0.5-0.9l0.1-1
	c0,0-0.4-0.6-0.5-0.7c-0.1,0-0.5-0.2-0.6-0.3c-0.1,0-0.3-0.9-0.3-0.9l-0.8-0.2c0,0-0.9,0.4-1,0.4c-0.1,0-1.1-0.6-1.3-0.6
	s-1.3,0.3-1.3,0.3s-0.6,0.1-0.7,0.1c0,0-0.1,0.6-0.1,0.6s0.2,0.8,0.1,1c-0.1,0.2-0.9,0.3-0.8,0.7c0.1,0.4-0.2,0.5-0.2,0.5
	s-0.3,0.7-0.3,0.8c0,0.1,0.1,0.9,0.1,1c0,0.1,0.1,0.6,0.8,0.8c0,0-0.2,0.6,0.1,0.8c0.1,0-0.1,0.5-0.1,0.5
	C135.4,124.8,136,125.1,136,125.1z"/>
<radialGradient id="SVGID_00000011000957130446118340000006263477146006799004_" cx="11.287" cy="122.7312" r="4.234" gradientUnits="userSpaceOnUse">
	<stop  offset="0" style="stop-color:#FFF6E3"/>
	<stop  offset="0" style="stop-color:#DCBA93"/>
	<stop  offset="0.3778" style="stop-color:#AD7341"/>
	<stop  offset="0.5934" style="stop-color:#934E1F"/>
	<stop  offset="0.9146" style="stop-color:#5B1D14"/>
</radialGradient>
<path style="fill:url(#SVGID_00000011000957130446118340000006263477146006799004_);stroke:#000000;stroke-width:0.75;stroke-miterlimit:10;" d="
	M8.6,125.7l0.6,0.8c0,0,0.7-0.4,0.7-0.3c0.1,0,0.8,0.8,0.8,0.8l1.5-0.4l1.3-0.2l0.6-0.7l0.8-0.7l-0.3-0.9l0.8-1.3l-0.5-0.9l0.1-1
	c0,0-0.4-0.6-0.5-0.7s-0.5-0.2-0.6-0.3c-0.1,0-0.3-0.9-0.3-0.9l-0.8-0.2c0,0-0.9,0.4-1,0.4s-1.1-0.6-1.3-0.6s-1.3,0.3-1.3,0.3
	s-0.6,0.1-0.7,0.1c0,0-0.1,0.6-0.1,0.6s0.2,0.8,0.1,1s-0.9,0.3-0.8,0.7c0.1,0.4-0.2,0.5-0.2,0.5s-0.3,0.7-0.3,0.8
	c0,0.1,0.1,0.9,0.1,1c0,0.1,0.1,0.6,0.8,0.8c0,0-0.2,0.6,0.1,0.8c0.1,0-0.1,0.5-0.1,0.5S8.6,125.7,8.6,125.7z"/>
<radialGradient id="SVGID_00000019666974043021629160000015035202250935580294_" cx="122.7095" cy="19.8406" r="4.234" gradientUnits="userSpaceOnUse">
	<stop  offset="0" style="stop-color:#FFF6E3"/>
	<stop  offset="0" style="stop-color:#DCBA93"/>
	<stop  offset="0.3778" style="stop-color:#AD7341"/>
	<stop  offset="0.5934" style="stop-color:#934E1F"/>
	<stop  offset="0.9146" style="stop-color:#5B1D14"/>
</radialGradient>
<path style="fill:url(#SVGID_00000019666974043021629160000015035202250935580294_);stroke:#000000;stroke-width:0.75;stroke-miterlimit:10;" d="
	M120,22.9l0.6,0.8c0,0,0.7-0.4,0.7-0.3c0.1,0,0.8,0.8,0.8,0.8l1.5-0.4l1.3-0.2l0.6-0.7l0.8-0.7l-0.3-0.9l0.8-1.3l-0.5-0.9l0.1-1
	c0,0-0.4-0.6-0.5-0.7c-0.1,0-0.5-0.2-0.6-0.3c-0.1,0-0.3-0.9-0.3-0.9l-0.8-0.2c0,0-0.9,0.4-1,0.4c-0.1,0-1.1-0.6-1.3-0.6
	c-0.2,0-1.3,0.3-1.3,0.3s-0.6,0.1-0.7,0.1c0,0-0.1,0.6-0.1,0.6s0.2,0.8,0.1,1s-0.9,0.3-0.8,0.7c0.1,0.4-0.2,0.5-0.2,0.5
	c0,0.1-0.3,0.7-0.3,0.8s0.1,0.9,0.1,1c0,0.1,0.1,0.6,0.8,0.8c0,0-0.2,0.6,0.1,0.8c0.1,0-0.1,0.5-0.1,0.5S120,22.9,120,22.9z"/>
</svg>
