<?xml version="1.0" encoding="utf-8"?>
<!-- Generator: Adobe Illustrator 27.3.1, SVG Export Plug-In . SVG Version: 6.00 Build 0)  -->
<svg version="1.1" id="Calque_1" xmlns="http://www.w3.org/2000/svg" xmlns:xlink="http://www.w3.org/1999/xlink" x="0px" y="0px"
	 viewBox="0 0 50 50" style="enable-background:new 0 0 50 50;" xml:space="preserve">
<style type="text/css">
	.st0{fill:url(#SVGID_1_);stroke:#000000;stroke-miterlimit:10;}
	
		.st1{fill:url(#SVGID_00000003070566898607098660000008319160484733250189_);stroke:#000000;stroke-width:0.25;stroke-miterlimit:10;}
	
		.st2{fill:url(#SVGID_00000087379844686678249360000010637600596898941358_);stroke:#000000;stroke-width:0.25;stroke-miterlimit:10;}
	
		.st3{fill:url(#SVGID_00000036970647658304019750000004272839148911495353_);stroke:#000000;stroke-width:0.25;stroke-miterlimit:10;}
</style>
<radialGradient id="SVGID_1_" cx="25.6386" cy="25.7112" r="22.5869" gradientUnits="userSpaceOnUse">
	<stop  offset="0" style="stop-color:#FFF6E3"/>
	<stop  offset="0" style="stop-color:#DCBA93"/>
	<stop  offset="0.3778" style="stop-color:#AD7341"/>
	<stop  offset="0.5934" style="stop-color:#934E1F"/>
	<stop  offset="0.9146" style="stop-color:#5B1D14"/>
</radialGradient>
<path class="st0" d="M11.2,41.8l2.9,4.1c0,0,3.7-1.9,4-1.8c0.3,0.1,4.4,4.4,4.4,4.4l8.1-2.1l7.1-1.1l3.4-4l4.2-4l-1.6-4.8l4.4-7.1
	l-2.7-4.9l0.6-5.6c0,0-2.4-3.4-2.9-3.6c-0.5-0.2-2.6-1.3-3.1-1.4c-0.6-0.1-1.8-5-1.8-5l-4.2-1.1c0,0-5,2.3-5.4,2.3S22.3,3,21.3,2.9
	c-1-0.1-7.1,1.4-7.1,1.4S10.8,5,10.6,5.1c-0.2,0.1-0.7,3-0.7,3s0.9,4.2,0.4,5.1c-0.5,0.9-4.9,1.5-4.4,3.7S5,19.3,5,19.6
	c0.1,0.3-1.8,3.5-1.8,4.2s0.3,4.7,0.4,5.2c0.1,0.5,0.5,2.9,4.2,4.1c0.2,0-1.1,3.2,0.3,4.2c0.3,0.2-0.4,2.6-0.4,2.8
	S11.2,41.8,11.2,41.8z"/>
<radialGradient id="SVGID_00000134935501293015893980000006097165387316305819_" cx="47.3728" cy="40.3664" r="1.4888" gradientUnits="userSpaceOnUse">
	<stop  offset="0" style="stop-color:#FFF6E3"/>
	<stop  offset="0" style="stop-color:#DCBA93"/>
	<stop  offset="0.3778" style="stop-color:#AD7341"/>
	<stop  offset="0.5934" style="stop-color:#934E1F"/>
	<stop  offset="0.9146" style="stop-color:#5B1D14"/>
</radialGradient>
<path style="fill:url(#SVGID_00000134935501293015893980000006097165387316305819_);stroke:#000000;stroke-width:0.25;stroke-miterlimit:10;" d="
	M46.4,41.4l0.2,0.3c0,0,0.2-0.1,0.3-0.1s0.3,0.3,0.3,0.3l0.5-0.1l0.5-0.1l0.2-0.3l0.3-0.3l-0.1-0.3l0.3-0.5L48.7,40l0-0.4
	c0,0-0.2-0.2-0.2-0.2c0,0-0.2-0.1-0.2-0.1c0,0-0.1-0.3-0.1-0.3l-0.3-0.1c0,0-0.3,0.1-0.4,0.1s-0.4-0.2-0.5-0.2S46.6,39,46.6,39
	s-0.2,0-0.2,0s0,0.2,0,0.2s0.1,0.3,0,0.3c0,0.1-0.3,0.1-0.3,0.2c0,0.1-0.1,0.2-0.1,0.2s-0.1,0.2-0.1,0.3c0,0,0,0.3,0,0.3
	c0,0,0,0.2,0.3,0.3c0,0-0.1,0.2,0,0.3c0,0,0,0.2,0,0.2S46.4,41.4,46.4,41.4z"/>
<radialGradient id="SVGID_00000076587555610496968750000010937788100628917925_" cx="2.5662" cy="40.5987" r="1.4888" gradientUnits="userSpaceOnUse">
	<stop  offset="0" style="stop-color:#FFF6E3"/>
	<stop  offset="0" style="stop-color:#DCBA93"/>
	<stop  offset="0.3778" style="stop-color:#AD7341"/>
	<stop  offset="0.5934" style="stop-color:#934E1F"/>
	<stop  offset="0.9146" style="stop-color:#5B1D14"/>
</radialGradient>
<path style="fill:url(#SVGID_00000076587555610496968750000010937788100628917925_);stroke:#000000;stroke-width:0.25;stroke-miterlimit:10;" d="
	M1.6,41.7l0.2,0.3c0,0,0.2-0.1,0.3-0.1s0.3,0.3,0.3,0.3L2.9,42l0.5-0.1l0.2-0.3l0.3-0.3L3.8,41L4,40.6l-0.2-0.3l0-0.4
	c0,0-0.2-0.2-0.2-0.2s-0.2-0.1-0.2-0.1s-0.1-0.3-0.1-0.3l-0.3-0.1c0,0-0.3,0.1-0.4,0.1c0,0-0.4-0.2-0.5-0.2s-0.5,0.1-0.5,0.1
	s-0.2,0-0.2,0c0,0,0,0.2,0,0.2s0.1,0.3,0,0.3c0,0.1-0.3,0.1-0.3,0.2s-0.1,0.2-0.1,0.2c0,0-0.1,0.2-0.1,0.3c0,0,0,0.3,0,0.3
	c0,0,0,0.2,0.3,0.3c0,0-0.1,0.2,0,0.3c0,0,0,0.2,0,0.2S1.6,41.7,1.6,41.7z"/>
<radialGradient id="SVGID_00000140014675268330043250000012623815922716041144_" cx="41.7455" cy="4.4194" r="1.4888" gradientUnits="userSpaceOnUse">
	<stop  offset="0" style="stop-color:#FFF6E3"/>
	<stop  offset="0" style="stop-color:#DCBA93"/>
	<stop  offset="0.3778" style="stop-color:#AD7341"/>
	<stop  offset="0.5934" style="stop-color:#934E1F"/>
	<stop  offset="0.9146" style="stop-color:#5B1D14"/>
</radialGradient>
<path style="fill:url(#SVGID_00000140014675268330043250000012623815922716041144_);stroke:#000000;stroke-width:0.25;stroke-miterlimit:10;" d="
	M40.8,5.5L41,5.7c0,0,0.2-0.1,0.3-0.1c0,0,0.3,0.3,0.3,0.3l0.5-0.1l0.5-0.1l0.2-0.3L43,5.2l-0.1-0.3l0.3-0.5L43,4.1l0-0.4
	c0,0-0.2-0.2-0.2-0.2c0,0-0.2-0.1-0.2-0.1c0,0-0.1-0.3-0.1-0.3L42.3,3c0,0-0.3,0.1-0.4,0.1s-0.4-0.2-0.5-0.2C41.4,2.9,41,3,41,3
	s-0.2,0-0.2,0c0,0,0,0.2,0,0.2s0.1,0.3,0,0.3c0,0.1-0.3,0.1-0.3,0.2S40.4,4,40.4,4c0,0-0.1,0.2-0.1,0.3c0,0,0,0.3,0,0.3
	c0,0,0,0.2,0.3,0.3c0,0-0.1,0.2,0,0.3c0,0,0,0.2,0,0.2C40.6,5.4,40.8,5.5,40.8,5.5z"/>
</svg>
