<?xml version="1.0" encoding="utf-8"?>
<!-- Generator: Adobe Illustrator 27.3.1, SVG Export Plug-In . SVG Version: 6.00 Build 0)  -->
<svg version="1.1" id="Calque_1" xmlns="http://www.w3.org/2000/svg" xmlns:xlink="http://www.w3.org/1999/xlink" x="0px" y="0px"
	 viewBox="0 0 70 70" style="enable-background:new 0 0 70 70;" xml:space="preserve">
<style type="text/css">
	.st0{fill:#C71E1B;}
	.st1{fill:url(#SVGID_1_);stroke:#020203;stroke-width:3;stroke-miterlimit:10;}
	.st2{fill:none;stroke:#020203;stroke-width:3;stroke-miterlimit:10;}
</style>
<polyline class="st0" points="3.3,61.9 7.6,68.4 13.2,63.9 19,67.7 25.8,65.2 29.9,68.5 39.3,65.2 43.2,70 51.2,66 55,68.4 
	60.6,61.9 63.6,66 66.7,61.9 "/>
<radialGradient id="SVGID_1_" cx="35" cy="35.05" r="32.8715" gradientUnits="userSpaceOnUse">
	<stop  offset="0" style="stop-color:#FEF5AE"/>
	<stop  offset="0.5" style="stop-color:#FEEB1A"/>
	<stop  offset="1" style="stop-color:#FFD802"/>
</radialGradient>
<path class="st1" d="M67.3,61.7l-6.2-10c3.3-4.6,5.2-10.2,5.2-16.4c0-14.9-10.9-27-26.2-28.9c-1.3-0.1-3.5-4.8-4.9-4.8
	c-1.2,0-3.7,4.3-4.8,4.4C14.7,7.7,3.7,20.2,3.7,35.3c0,6.4,2,12.2,5.6,16.9l-6.5,9.5h19.7c2,0.7,4.1,1.3,6.2,1.6
	c1.8,0.3,4.7,5.2,6.5,5.2c1.6,0,3.6-4.5,5.1-4.7c2.8-0.4,5.5-1.1,7.9-2.1H67.3z"/>
<path class="st2" d="M19,28.1c0,0,9.4-4.8,12.3,0"/>
<path class="st2" d="M42.3,28.1c0,0,8.5-6.6,12.5,0"/>
<path class="st2" d="M30.1,47.3c0,0,4.6-15,12.1-5.3s-2.1,13.2-7.9,9.4C28.7,47.7,30.1,47.3,30.1,47.3z"/>
</svg>
