<?xml version="1.0" encoding="utf-8"?>
<!-- Generator: Adobe Illustrator 27.3.1, SVG Export Plug-In . SVG Version: 6.00 Build 0)  -->
<svg version="1.1" id="Calque_1" xmlns="http://www.w3.org/2000/svg" xmlns:xlink="http://www.w3.org/1999/xlink" x="0px" y="0px"
	 viewBox="0 0 50 50" style="enable-background:new 0 0 50 50;" xml:space="preserve">
<style type="text/css">
	.st0{opacity:0.6;fill:#0BBBEF;stroke:#000000;stroke-miterlimit:10;}
	.st1{opacity:0.7;fill:#8EC369;}
	.st2{fill:#E62E1F;}
	.st3{fill:#525251;stroke:#000000;stroke-miterlimit:10;}
	.st4{fill:none;stroke:#000000;stroke-miterlimit:10;}
</style>
<path class="st0" d="M43,28.6c0,0-0.5-27.5-18.2-27.6S6.3,28.6,6.3,28.6H43z"/>
<polygon class="st1" points="14.3,39.8 9.1,50 39.6,50 34.2,39.8 "/>
<polyline class="st2" points="1.7,39.5 5.5,46.8 11.2,41.8 15.5,46.8 21.7,41.7 24.2,46.8 31.9,41.4 37.2,46.8 40.8,42.1 44.8,46.8 
	48.6,39.5 "/>
<polygon class="st3" points="1.1,39.5 48.6,39.5 43,28.6 6.3,28.6 "/>
<path class="st4" d="M43,28.6c0,0-0.5-27.5-18.2-27.6S6.3,28.6,6.3,28.6H43z"/>
</svg>
