<?xml version="1.0" encoding="utf-8"?>
<!-- Generator: Adobe Illustrator 27.3.1, SVG Export Plug-In . SVG Version: 6.00 Build 0)  -->
<svg version="1.1" id="Calque_1" xmlns="http://www.w3.org/2000/svg" xmlns:xlink="http://www.w3.org/1999/xlink" x="0px" y="0px"
	 viewBox="0 0 1000 1000" style="enable-background:new 0 0 1000 1000;" xml:space="preserve">
<style type="text/css">
	.st0{fill:#251A60;}
	.st1{fill:#FFFFFF;}
</style>
<rect class="st0" width="1000" height="1000"/>
<g>
	<g>
		<path class="st1" d="M217,234.8c3.2,0,3.2-5,0-5C213.8,229.8,213.8,234.8,217,234.8L217,234.8z"/>
	</g>
</g>
<g>
	<g>
		<path class="st1" d="M732.6,239.3c3.2,0,3.2-5,0-5C729.3,234.3,729.3,239.3,732.6,239.3L732.6,239.3z"/>
	</g>
</g>
<g>
	<g>
		<path class="st1" d="M514.8,430.4c3.2,0,3.2-5,0-5C511.6,425.4,511.6,430.4,514.8,430.4L514.8,430.4z"/>
	</g>
</g>
<g>
	<g>
		<path class="st1" d="M958.1,578.2c3.2,0,3.2-5,0-5C954.9,573.2,954.9,578.2,958.1,578.2L958.1,578.2z"/>
	</g>
</g>
<g>
	<g>
		<path class="st1" d="M367,668.2c3.2,0,3.2-5,0-5C363.8,663.2,363.8,668.2,367,668.2L367,668.2z"/>
	</g>
</g>
<g>
	<g>
		<path class="st1" d="M263.7,483.7c3.2,0,3.2-5,0-5C260.4,478.7,260.4,483.7,263.7,483.7L263.7,483.7z"/>
	</g>
</g>
<g>
	<g>
		<path class="st1" d="M683.7,724.8c3.2,0,3.2-5,0-5C680.4,719.8,680.4,724.8,683.7,724.8L683.7,724.8z"/>
	</g>
</g>
<g>
	<g>
		<path class="st1" d="M255.9,821.5c3.2,0,3.2-5,0-5C252.7,816.5,252.7,821.5,255.9,821.5L255.9,821.5z"/>
	</g>
</g>
<g>
	<g>
		<path class="st1" d="M159.2,402.6c3.2,0,3.2-5,0-5C156,397.6,156,402.6,159.2,402.6L159.2,402.6z"/>
	</g>
</g>
<g>
	<g>
		<path class="st1" d="M612.6,894.8c3.2,0,3.2-5,0-5C609.3,889.8,609.3,894.8,612.6,894.8L612.6,894.8z"/>
	</g>
</g>
<g>
	<g>
		<path class="st1" d="M699.2,465.9c3.2,0,3.2-5,0-5C696,460.9,696,465.9,699.2,465.9L699.2,465.9z"/>
	</g>
</g>
<g>
	<g>
		<path class="st1" d="M504.8,210.4c3.2,0,3.2-5,0-5C501.6,205.4,501.6,210.4,504.8,210.4L504.8,210.4z"/>
	</g>
</g>
<g>
	<g>
		<path class="st1" d="M211.4,58.2c3.2,0,3.2-5,0-5C208.2,53.2,208.2,58.2,211.4,58.2L211.4,58.2z"/>
	</g>
</g>
<g>
	<g>
		<path class="st1" d="M875.9,74.8c3.2,0,3.2-5,0-5C872.7,69.8,872.7,74.8,875.9,74.8L875.9,74.8z"/>
	</g>
</g>
<g>
	<g>
		<path class="st1" d="M914.8,823.7c3.2,0,3.2-5,0-5C911.6,818.7,911.6,823.7,914.8,823.7L914.8,823.7z"/>
	</g>
</g>
<g>
	<g>
		<path class="st1" d="M798.1,602.6c3.2,0,3.2-5,0-5C794.9,597.6,794.9,602.6,798.1,602.6L798.1,602.6z"/>
	</g>
</g>
<g>
	<g>
		<path class="st1" d="M362.6,912.6c3.2,0,3.2-5,0-5C359.3,907.6,359.3,912.6,362.6,912.6L362.6,912.6z"/>
	</g>
</g>
<g>
	<g>
		<path class="st1" d="M107,902.6c3.2,0,3.2-5,0-5C103.8,897.6,103.8,902.6,107,902.6L107,902.6z"/>
	</g>
</g>
<g>
	<g>
		<path class="st1" d="M95.9,674.8c3.2,0,3.2-5,0-5C92.7,669.8,92.7,674.8,95.9,674.8L95.9,674.8z"/>
	</g>
</g>
<g>
	<g>
		<path class="st1" d="M567,568.2c3.2,0,3.2-5,0-5C563.8,563.2,563.8,568.2,567,568.2L567,568.2z"/>
	</g>
</g>
<g>
	<g>
		<path class="st1" d="M371.4,383.7c3.2,0,3.2-5,0-5C368.2,378.7,368.2,383.7,371.4,383.7L371.4,383.7z"/>
	</g>
</g>
<g>
	<g>
		<path class="st1" d="M450.3,85.9c3.2,0,3.2-5,0-5C447.1,80.9,447.1,85.9,450.3,85.9L450.3,85.9z"/>
	</g>
</g>
<g>
	<g>
		<path class="st1" d="M902.6,308.2c3.2,0,3.2-5,0-5C899.3,303.2,899.3,308.2,902.6,308.2L902.6,308.2z"/>
	</g>
</g>
<g>
	<g>
		<path class="st1" d="M698.1,109.3c3.2,0,3.2-5,0-5C694.9,104.3,694.9,109.3,698.1,109.3L698.1,109.3z"/>
	</g>
</g>
<g>
	<g>
		<path class="st1" d="M82.6,221.5c3.2,0,3.2-5,0-5C79.3,216.5,79.3,221.5,82.6,221.5L82.6,221.5z"/>
	</g>
</g>
<g>
	<g>
		<path class="st1" d="M131.4,192.6c3.2,0,3.2-5,0-5C128.2,187.6,128.2,192.6,131.4,192.6L131.4,192.6z"/>
	</g>
</g>
<g>
	<g>
		<path class="st1" d="M178.1,223.7c3.2,0,3.2-5,0-5C174.9,218.7,174.9,223.7,178.1,223.7L178.1,223.7z"/>
	</g>
</g>
<g>
	<g>
		<path class="st1" d="M279.2,224.8c3.2,0,3.2-5,0-5C276,219.8,276,224.8,279.2,224.8L279.2,224.8z"/>
	</g>
</g>
<g>
	<g>
		<path class="st1" d="M342.6,220.4c3.2,0,3.2-5,0-5C339.3,215.4,339.3,220.4,342.6,220.4L342.6,220.4z"/>
	</g>
</g>
<g>
	<g>
		<path class="st1" d="M335.9,282.6c3.2,0,3.2-5,0-5C332.7,277.6,332.7,282.6,335.9,282.6L335.9,282.6z"/>
	</g>
</g>
<g>
	<g>
		<path class="st1" d="M255.9,289.3c3.2,0,3.2-5,0-5C252.7,284.3,252.7,289.3,255.9,289.3L255.9,289.3z"/>
	</g>
</g>
</svg>
